<svg width="64" height="64" viewBox="0 0 64 64" fill="none" xmlns="http://www.w3.org/2000/svg">
<circle cx="31.5463" cy="31.5463" r="31.5463" fill="#141527"/>
<path fill-rule="evenodd" clip-rule="evenodd" d="M24.3681 19.372C23.2543 19.6442 22.4545 20.6053 22.3591 21.7861C22.2729 22.8527 22.8531 23.8496 23.8496 24.3472L24.3148 24.5795H25.0309H25.7469L25.9225 24.8989C26.0191 25.0746 26.0899 25.2235 26.0799 25.2297C25.7646 25.4272 25.0705 26.0096 24.6725 26.4108C24.2784 26.8081 23.6432 27.5773 23.503 27.827C23.4981 27.8358 23.3463 27.7557 23.1657 27.649C22.9851 27.5423 22.8269 27.455 22.8143 27.455C22.8016 27.455 22.7629 27.5475 22.7283 27.6604C22.672 27.8441 22.5048 28.1326 22.255 28.4775C22.1718 28.5922 22.1778 28.6014 22.4307 28.7471C22.8531 28.9904 22.8412 28.9489 22.6308 29.4442C22.2604 30.3159 21.9046 31.753 21.9046 32.3773V32.5488H21.1693C20.5169 32.5488 20.4305 32.5379 20.4032 32.4529C20.0504 31.3562 19.0062 30.5797 17.8812 30.5777C15.5393 30.5734 14.3532 33.4346 16.0056 35.1023C16.5239 35.6254 17.1478 35.891 17.8525 35.8885C18.3409 35.8868 18.6384 35.817 19.0709 35.6024C19.662 35.3091 20.1885 34.6813 20.4032 34.0139C20.4305 33.929 20.5166 33.9181 21.1618 33.9181H21.8896L21.9274 34.3426C22.0008 35.1678 22.3075 36.3047 22.6944 37.1865C22.7689 37.3562 22.8234 37.4996 22.8155 37.5051C22.8076 37.5106 22.6606 37.5949 22.4888 37.6924C22.3169 37.7899 22.1763 37.8887 22.1763 37.9119C22.1763 37.9352 22.226 37.9995 22.2867 38.0549C22.4241 38.1803 22.6988 38.6598 22.7486 38.8612C22.7691 38.9441 22.7984 39.0119 22.8138 39.0119C22.8292 39.0119 22.9883 38.9318 23.1673 38.8338L23.4928 38.6558L23.6089 38.816C24.1904 39.6182 24.9444 40.3954 25.6892 40.9605L26.0894 41.2641L25.9128 41.5856L25.7361 41.9071L25.1869 41.8758C24.5228 41.8379 24.0682 41.9533 23.5597 42.2891C23.1614 42.552 22.9465 42.778 22.6993 43.1933C22.1007 44.1989 22.2781 45.5313 23.1242 46.3853C23.4829 46.7473 23.8176 46.945 24.3218 47.0928C24.7454 47.2169 25.5022 47.1798 25.9258 47.0142C27.5619 46.3745 28.1424 44.3417 27.0976 42.9113L26.8634 42.5905L27.0479 42.2593L27.2324 41.9282L27.7193 42.1398C28.5568 42.5037 29.3599 42.7109 30.5613 42.873L30.8223 42.9083L30.8058 43.6351L30.7893 44.362L30.9795 44.3173C31.2278 44.2589 31.6607 44.2603 31.9169 44.3203L32.1207 44.3679V43.6386V42.9094L32.2701 42.8805C32.3523 42.8646 32.5785 42.8355 32.7728 42.8158C33.2969 42.7626 34.4641 42.4475 35.0818 42.1923C35.3805 42.0689 35.6495 41.9779 35.6796 41.9899C35.7097 42.0019 35.8061 42.1467 35.8937 42.3115L36.0532 42.6112L35.8596 42.8518C35.1953 43.6771 35.0874 44.8298 35.5862 45.7721C35.775 46.1287 36.3084 46.6663 36.6622 46.8566C38.1889 47.6777 40.0935 46.8025 40.4893 45.098C40.5839 44.691 40.5321 43.941 40.3828 43.5555C40.1341 42.913 39.5129 42.2846 38.8613 42.0164C38.6059 41.9112 38.4542 41.8915 37.8633 41.8869L37.1666 41.8813L37.0084 41.6105C36.9214 41.4615 36.8505 41.315 36.8508 41.2849C36.8511 41.2548 37.037 41.0945 37.2639 40.9289C37.7888 40.5456 38.6524 39.6794 39.0846 39.1026C39.2687 38.8569 39.4375 38.6611 39.4597 38.6677C39.4819 38.6742 39.6283 38.7557 39.785 38.8489C39.9417 38.942 40.0879 38.9983 40.1099 38.9739C40.132 38.9496 40.1792 38.8375 40.215 38.7247C40.2507 38.6121 40.3861 38.3745 40.5158 38.1969L40.7517 37.874L40.4981 37.732C40.3587 37.6539 40.2118 37.5682 40.1717 37.5415C40.1133 37.5026 40.1479 37.368 40.3444 36.8693C40.6455 36.1056 40.8379 35.3903 40.9486 34.6231C40.9948 34.3029 41.0326 34.0133 41.0326 33.9795C41.0326 33.9372 41.2581 33.9181 41.7575 33.9181H42.4824L42.5575 34.1475C42.7366 34.6944 43.2817 35.3209 43.8166 35.5948C45.5169 36.4652 47.5371 35.32 47.6485 33.4227C47.6967 32.601 47.4901 32.0105 46.9513 31.43C45.9617 30.3636 44.3654 30.2896 43.2724 31.2593C42.9858 31.5137 42.6662 31.9875 42.5575 32.3193L42.4824 32.5488H41.7614H41.0404L41.0038 32.2338C40.8935 31.2839 40.6335 30.2692 40.298 29.4793C40.194 29.2342 40.1088 29.0169 40.1088 28.9964C40.1088 28.9759 40.2544 28.8785 40.4323 28.7799L40.7558 28.6006L40.542 28.3159C40.4244 28.1594 40.2758 27.9012 40.2118 27.7422L40.0954 27.4532L39.7594 27.6426L39.4233 27.832L39.075 27.3668C38.6623 26.8159 37.6664 25.8217 37.188 25.483C37.0012 25.3507 36.8483 25.2224 36.8483 25.1978C36.8483 25.1731 36.9225 25.0205 37.0132 24.8585L37.178 24.5641L37.7397 24.593C38.2105 24.6172 38.3619 24.6033 38.6753 24.5071C40.3004 24.0082 41.0175 22.1971 40.2035 20.6473C39.6943 19.6779 38.4826 19.123 37.3808 19.3545C36.4165 19.5573 35.6035 20.3363 35.3558 21.2951C35.1487 22.0965 35.3627 23.0574 35.8808 23.6522L36.0546 23.8517L35.8693 24.1977L35.684 24.5438L35.4918 24.4579C34.5668 24.0443 33.5974 23.7625 32.7728 23.6675C32.4888 23.6347 32.2246 23.5989 32.1857 23.5877C32.1308 23.572 32.1185 23.4016 32.1313 22.8362L32.1479 22.105L31.9305 22.1562C31.8109 22.1844 31.5114 22.194 31.2648 22.1775L30.8165 22.1475V22.8558C30.8165 23.671 30.9099 23.567 30.0829 23.6727C29.2784 23.7757 27.9986 24.1543 27.3989 24.4669L27.2361 24.5517L27.0485 24.2163L26.861 23.8808L27.0538 23.6277C28.0889 22.2689 27.677 20.3547 26.1849 19.5894C25.6339 19.3067 24.9632 19.2265 24.3681 19.372ZM25.5954 20.7706C25.8362 20.8944 26.126 21.211 26.2315 21.4654C26.3547 21.7627 26.3269 22.2432 26.1677 22.5651C25.5605 23.7931 23.6928 23.3604 23.6845 21.9897C23.6807 21.3646 24.0555 20.8605 24.6757 20.6567C24.8773 20.5904 25.3615 20.6503 25.5954 20.7706ZM38.2921 20.6891C38.9876 20.8983 39.3802 21.6294 39.1819 22.3463C39.0889 22.6823 38.6587 23.1297 38.3364 23.2258C37.5178 23.4695 36.71 22.9577 36.5965 22.1233C36.5161 21.5316 36.9276 20.8693 37.4825 20.6974C37.8219 20.5923 37.9653 20.5909 38.2921 20.6891ZM32.3266 24.9381C36.0809 25.3463 39.0902 28.2581 39.6442 32.0184C40.021 34.5765 39.1971 37.1468 37.3958 39.0318C36.1848 40.299 34.6973 41.1036 32.9086 41.4589C32.1687 41.6058 30.5964 41.5923 29.8599 41.4325C29.0791 41.2632 28.5476 41.0771 27.8006 40.7114C26.9739 40.3067 26.3165 39.8363 25.6549 39.1762C24.3461 37.8704 23.5759 36.3567 23.258 34.4658C23.1658 33.9174 23.1655 32.6393 23.2574 32.0285C23.5534 30.0603 24.5873 28.1665 26.0444 26.9231C27.8361 25.3943 30.0599 24.6917 32.3266 24.9381ZM30.9285 28.9386C28.8158 29.2142 27.1757 31.0339 27.1757 33.1024C27.1757 33.4175 27.1958 33.4956 27.3133 33.6364C27.5039 33.8647 27.7527 33.9405 28.0178 33.851C28.3262 33.747 28.4306 33.5661 28.4827 33.0446C28.5649 32.2228 28.8288 31.6466 29.3736 31.0993C30.4886 29.9793 32.3034 29.9541 33.4695 31.0423C34.1234 31.6525 34.4201 32.3387 34.4168 33.2334C34.4134 34.1582 34.1195 34.8248 33.434 35.4627C32.9169 35.9438 32.3966 36.1555 31.4986 36.2499C31.2291 36.2782 31.1458 36.3139 30.996 36.4648C30.8448 36.6172 30.8165 36.6855 30.8165 36.8985C30.8165 37.11 30.8469 37.1846 31.0027 37.3558L31.189 37.5604L31.6684 37.5494C32.8177 37.5232 34.0339 36.911 34.7905 35.978C35.1011 35.5949 35.4973 34.8106 35.6235 34.3289C35.7732 33.7572 35.7887 32.9816 35.6626 32.3696C35.2844 30.5338 33.8143 29.1713 31.9591 28.9372C31.4514 28.8731 31.4303 28.8732 30.9285 28.9386ZM18.4657 32.048C18.7163 32.1768 19.0057 32.4901 19.1128 32.7484C19.2187 33.0038 19.2051 33.5178 19.0855 33.7833C18.9599 34.0619 18.5533 34.4267 18.2742 34.5109C17.6437 34.7013 17.0348 34.4458 16.717 33.8573C16.2199 32.9367 16.9335 31.8317 17.9715 31.9147C18.1246 31.9269 18.347 31.9869 18.4657 32.048ZM45.6283 32.0447C46.401 32.4452 46.5946 33.4525 46.0245 34.1054C45.2933 34.9426 43.968 34.5795 43.7412 33.4799C43.6148 32.8666 43.9841 32.1987 44.5694 31.9823C44.8747 31.8693 45.3432 31.897 45.6283 32.0447ZM25.3929 43.2389C25.6719 43.3232 26.0785 43.6879 26.2042 43.9666C26.3278 44.241 26.3363 44.7484 26.2219 45.0248C26.1167 45.2792 25.8512 45.5622 25.5912 45.6973C24.7168 46.1517 23.6843 45.5123 23.6843 44.5164C23.6843 43.6076 24.5271 42.9774 25.3929 43.2389ZM38.4242 43.2885C39.1072 43.6001 39.4208 44.381 39.1263 45.0367C38.8871 45.5693 38.4913 45.8268 37.908 45.8293C37.5884 45.8307 37.4866 45.8067 37.2713 45.6791C36.621 45.2938 36.398 44.4886 36.7661 43.8554C37.1077 43.2679 37.8345 43.0194 38.4242 43.2885Z" fill="white"/>
<path d="M27.1755 33.1038C27.1755 31.0353 28.8157 29.2155 30.9284 28.94C31.4302 28.8745 31.4513 28.8745 31.959 28.9386C33.8142 29.1726 35.2843 30.5352 35.6625 32.371C35.7887 32.983 35.7731 33.7586 35.6234 34.3303C35.4972 34.812 35.101 35.5963 34.7904 35.9795C34.0338 36.9124 32.8176 37.5246 31.6683 37.5509L31.1889 37.5618L31.0026 37.3573C30.8468 37.186 30.8164 37.1114 30.8164 36.8999C30.8164 36.6869 30.8447 36.6187 30.9959 36.4662C31.1456 36.3153 31.229 36.2796 31.4985 36.2513C32.3965 36.1569 32.9168 35.9452 33.4339 35.4641C34.1194 34.8262 34.4133 34.1596 34.4167 33.2348C34.42 32.3401 34.1233 31.6539 33.4694 31.0437C32.3033 29.9555 30.4884 29.9807 29.3735 31.1006C28.8287 31.648 28.5648 32.2242 28.4826 33.046C28.4304 33.5675 28.3261 33.7484 28.0177 33.8524C27.7525 33.9419 27.5038 33.8661 27.3132 33.6378C27.1957 33.497 27.1755 33.4189 27.1755 33.1038Z" fill="white"/>
<path fill-rule="evenodd" clip-rule="evenodd" d="M18.4395 24.7974C17.6099 25.5945 17.394 26.8298 17.8972 27.9005C18.3516 28.8676 19.3486 29.4386 20.4585 29.3673L20.9766 29.334L21.5967 28.9732L22.2168 28.6123L22.5273 28.8005C22.6981 28.904 22.8333 28.9972 22.8277 29.0077C22.6526 29.3375 22.3405 30.1917 22.1948 30.7398C22.0505 31.2824 21.882 32.2686 21.8845 32.5556C21.8846 32.5657 21.7134 32.5728 21.5041 32.5714C21.2947 32.5701 21.1145 32.5741 21.1035 32.5805C21.0925 32.5869 21.1049 32.6865 21.1309 32.8017C21.1733 32.9891 21.1717 33.3232 21.1264 33.7479C21.1113 33.8891 21.121 33.894 21.4123 33.8928C21.8988 33.8907 21.8679 33.8607 21.9313 34.3956C22.043 35.3372 22.4478 36.7611 22.7575 37.3017L22.8426 37.4503L22.2058 37.8208C21.6408 38.1496 21.5606 38.1838 21.4947 38.1239C20.6452 37.3519 19.3557 37.2056 18.3804 37.7709C16.3501 38.9474 16.7423 42.023 19.0006 42.6345C19.7089 42.8263 20.381 42.7419 20.9901 42.3846C21.4122 42.137 21.6352 41.9266 21.9033 41.5228C22.2697 40.9709 22.4143 40.1619 22.2691 39.4758C22.2506 39.3884 22.3198 39.3356 22.8785 39.0104L23.5088 38.6436L23.7522 38.9922C24.2251 39.6698 25.0546 40.4999 25.8271 41.0685C25.9759 41.178 26.0942 41.2747 26.0901 41.2834C26.086 41.2922 26.0005 41.4393 25.9 41.6103C25.7996 41.7813 25.7268 41.9378 25.7383 41.9579C25.7499 41.9781 25.8248 42.0087 25.9049 42.0261C26.0861 42.0654 26.5619 42.3423 26.7049 42.4916C26.7637 42.553 26.8227 42.5969 26.8361 42.5892C26.8494 42.5814 26.9474 42.4319 27.0539 42.2569L27.2475 41.9387L27.4275 42.0188C28.329 42.4206 29.3675 42.7137 30.2928 42.8276L30.7901 42.8889L30.7966 43.2563L30.803 43.6238L30.3119 43.8734C29.718 44.1753 29.3816 44.5044 29.1077 45.0514C28.8933 45.4798 28.8192 45.7838 28.8111 46.2681C28.7916 47.4406 29.6062 48.5052 30.7626 48.8183C31.2528 48.951 31.6408 48.9536 32.1507 48.8274C32.5791 48.7214 33.2162 48.3079 33.5008 47.951C34.6004 46.5726 34.0947 44.5196 32.4803 43.8073L32.1183 43.6476L32.1139 43.2677L32.1094 42.8879L32.636 42.8258C33.5418 42.7189 34.3401 42.4936 35.4609 42.0286L35.7045 41.9276L36.0508 42.5653L36.3971 43.2031L36.5396 43.0686C36.7256 42.893 37.1013 42.6759 37.3529 42.5988L37.553 42.5373L37.1912 41.9058L36.8295 41.2742L36.9446 41.1739C37.0079 41.1187 37.1893 40.9795 37.3478 40.8645C37.7754 40.5543 38.6298 39.6932 39.0382 39.1609C39.2356 38.9036 39.4234 38.6891 39.4554 38.6844C39.4875 38.6796 39.6428 38.7564 39.8004 38.8549L40.0872 39.0342L40.0389 39.3401C39.873 40.3896 40.3514 41.4423 41.2508 42.0069C41.5912 42.2206 42.3198 42.4173 42.7206 42.4038C44.4501 42.3455 45.6654 40.6277 45.1627 38.9522C45.0426 38.552 44.6258 37.9286 44.3052 37.67C43.7711 37.2389 42.9214 37.0078 42.2241 37.1039C41.9507 37.1415 41.8095 37.2009 41.2955 37.4946L40.6894 37.841L40.418 37.6862C40.2688 37.601 40.1347 37.5098 40.12 37.4836C40.1053 37.4573 40.1869 37.2249 40.3012 36.9671C40.5656 36.3707 40.8838 35.1853 40.972 34.468C41.0096 34.1624 41.0586 33.9078 41.0811 33.9022C41.1036 33.8967 41.2707 33.8936 41.4527 33.8952C41.6346 33.8969 41.7891 33.8719 41.7961 33.8398C41.8032 33.8076 41.7884 33.6867 41.7635 33.571C41.7386 33.4554 41.7379 33.1815 41.7622 32.9623L41.8062 32.5638L41.5162 32.5686C41.3567 32.5712 41.187 32.571 41.139 32.5681C41.0691 32.5638 41.0323 32.4299 40.9552 31.899C40.837 31.0858 40.6488 30.3694 40.3641 29.6492C40.2453 29.3487 40.1344 29.0788 40.1176 29.0496C40.0966 29.0129 40.2824 28.8827 40.7149 28.631L41.3427 28.2657L41.5216 28.4265C41.9479 28.8099 42.7308 29.0778 43.3299 29.0453C45.2342 28.9423 46.4157 26.9324 45.5709 25.2332C45.2051 24.4973 44.7332 24.09 43.9786 23.8588C42.5926 23.434 41.1735 24.1744 40.7079 25.565C40.5859 25.9297 40.5442 26.5011 40.6147 26.8433L40.6634 27.0799L40.039 27.4432L39.4146 27.8066L39.2267 27.5522C38.6599 26.7852 37.9314 26.0375 37.249 25.5224C37.0373 25.3627 36.8558 25.2174 36.8456 25.1996C36.8355 25.1819 36.9132 25.0241 37.0184 24.8491L37.2096 24.5308L36.8832 24.392C36.7037 24.3157 36.447 24.167 36.3127 24.0615L36.0685 23.8699L35.8714 24.2033L35.6744 24.5366L35.1419 24.3094C34.5113 24.0403 33.1556 23.6811 32.5732 23.6289C32.3459 23.6085 32.1498 23.5744 32.1376 23.5531C32.1254 23.5317 32.1139 23.3622 32.1121 23.1762L32.1088 22.8382L32.6095 22.5801C33.0293 22.3639 33.1535 22.2755 33.3772 22.0343C34.5371 20.7832 34.2597 18.8533 32.7859 17.9214C31.8641 17.3385 30.5395 17.4686 29.7001 18.2244C28.9656 18.8859 28.648 19.9703 28.909 20.9255C29.1272 21.7239 29.7892 22.4482 30.533 22.7022L30.7825 22.7874L30.7937 23.1804L30.8049 23.5735L30.5958 23.596C29.5895 23.704 28.6102 23.9485 27.849 24.2818C27.5868 24.3965 27.3402 24.4986 27.3009 24.5085C27.2456 24.5225 27.1505 24.3812 26.8811 23.8851L26.5326 23.2435L26.3698 23.3975C26.2803 23.4821 26.0256 23.6414 25.8039 23.7513L25.4007 23.9513L25.7521 24.5647C26.1565 25.2707 26.1858 25.1336 25.5221 25.6419C24.8764 26.1364 23.9559 27.1093 23.5916 27.6823L23.4927 27.8378L23.1638 27.6418L22.835 27.4458L22.8765 27.1294C23.0988 25.4311 21.7925 23.9809 20.1206 24.0701C19.5033 24.103 18.8826 24.3715 18.4395 24.7974ZM20.1961 25.3901C20.466 25.376 20.8741 25.5041 21.0917 25.6713C21.3459 25.8667 21.5601 26.2967 21.5819 26.6558C21.6653 28.0252 19.8332 28.5917 19.146 27.4089C18.8326 26.8694 18.9071 26.2441 19.3431 25.755C19.4849 25.596 19.9339 25.4038 20.1961 25.3901ZM31.1513 18.9209C31.8575 18.7515 32.5601 19.1869 32.744 19.9077C32.8301 20.2455 32.6796 20.8498 32.4481 21.0954C31.86 21.719 30.9066 21.6829 30.3944 21.0174C30.0312 20.5455 30.059 19.7646 30.4543 19.3361C30.6961 19.0741 30.8196 19.0005 31.1513 18.9209ZM28.0928 25.607C31.5467 24.0685 35.5973 25.0735 37.9424 28.0509C39.5377 30.0764 40.0992 32.7175 39.4743 35.2577C39.0542 36.9655 38.1651 38.4119 36.7923 39.621C36.2244 40.1211 34.856 40.9018 34.139 41.1346C33.3787 41.3814 32.8262 41.4881 31.9978 41.5479C31.0812 41.614 30.2784 41.5379 29.378 41.2997C27.5968 40.8284 26.1789 39.9057 24.9656 38.4284C24.6137 37.9999 23.9794 36.8932 23.756 36.3179C23.036 34.4643 22.9919 32.3031 23.6371 30.492C24.4303 28.2651 26.0076 26.5359 28.0928 25.607ZM19.616 38.7496C19.8969 38.7349 20.3029 38.8603 20.5239 39.0301C20.7422 39.1979 20.9854 39.6499 21.0135 39.9401C21.043 40.2447 20.8718 40.7655 20.6719 40.9791C20.2203 41.4617 19.5662 41.5473 18.9991 41.1978C18.1119 40.651 18.1817 39.3344 19.1219 38.8832C19.2605 38.8166 19.4829 38.7565 19.616 38.7496ZM43.1378 25.0579C44.0056 25.0153 44.673 25.7901 44.5031 26.6429C44.2852 27.7364 42.9574 28.0898 42.2155 27.2518C41.8017 26.7844 41.7903 26.0199 42.1898 25.5375C42.3982 25.2858 42.8176 25.0737 43.1378 25.0579ZM31.1665 44.9501C31.45 44.8825 31.983 44.9935 32.2301 45.1714C32.4732 45.3468 32.7324 45.782 32.7704 46.0789C32.8054 46.3523 32.716 46.7312 32.5578 46.9792C32.0259 47.8134 30.8145 47.78 30.3205 46.9176C29.8697 46.1305 30.287 45.16 31.1665 44.9501ZM42.4766 38.4258C43.2226 38.3514 43.8815 38.8697 43.9518 39.586C44.0089 40.1678 43.7938 40.5902 43.2899 40.8863C43.0138 41.0486 42.9138 41.0791 42.664 41.0771C41.9097 41.0712 41.3171 40.4863 41.3218 39.7523C41.3262 39.0714 41.8324 38.4899 42.4766 38.4258Z" fill="white"/>
<path d="M37.6145 32.9527C37.7047 32.9527 37.778 33.0258 37.7758 33.116C37.7431 34.492 37.2975 35.8248 36.4992 36.9273C35.6694 38.0734 34.5034 38.9086 33.1766 39.3074C31.8498 39.7062 30.4342 39.6468 29.1427 39.1383C27.8513 38.6298 26.7539 37.6996 26.0158 36.4878C25.2778 35.276 24.9389 33.8481 25.0503 32.4191C25.1617 30.9902 25.7173 29.6374 26.6335 28.5645C27.5497 27.4916 28.7768 26.7567 30.1303 26.4703C31.4306 26.1951 32.7798 26.3483 33.9903 26.9061C34.073 26.9442 34.1077 27.0424 34.0699 27.1252V27.1252C34.0304 27.2114 33.9276 27.2478 33.8413 27.2084C32.6971 26.6853 31.4233 26.5426 30.1955 26.8024C28.9114 27.0741 27.7471 27.7714 26.8779 28.7894C26.0087 29.8073 25.4815 31.0907 25.3758 32.4465C25.2701 33.8022 25.5916 35.1569 26.2919 36.3067C26.9921 37.4564 28.0333 38.3389 29.2585 38.8214C30.4838 39.3038 31.827 39.3602 33.0858 38.9818C34.3445 38.6035 35.4509 37.811 36.2382 36.7236C36.9939 35.6798 37.4165 34.4186 37.4491 33.116C37.4514 33.0258 37.5243 32.9527 37.6145 32.9527V32.9527Z" stroke="white" stroke-width="0.785435"/>
</svg>
