<svg width="64" height="64" viewBox="0 0 64 64" fill="none" xmlns="http://www.w3.org/2000/svg">
<circle cx="31.5463" cy="31.5463" r="31.5463" fill="#141527"/>
<path d="M31.5879 49.8504C31.7545 49.8984 31.9312 49.8984 32.0977 49.8504C40.1589 47.529 45.7616 40.0726 45.7616 31.5674V20.565C45.7616 20.1815 45.4506 19.8705 45.0671 19.8705H41.7956C41.6105 19.8705 41.433 19.7966 41.3026 19.6652L39.8542 18.2054C39.7238 18.0739 39.5464 18 39.3612 18H24.3244C24.1393 18 23.9618 18.0739 23.8314 18.2054L22.3831 19.6652C22.2527 19.7966 22.0752 19.8705 21.89 19.8705H18.6186C18.235 19.8705 17.9241 20.1815 17.9241 20.565V31.5674C17.9241 40.018 23.4739 47.5138 31.5879 49.8504ZM19.7799 22.4356C19.7799 22.052 20.0908 21.7411 20.4744 21.7411H22.6587C22.8439 21.7411 23.0213 21.6671 23.1517 21.5357L24.6001 20.0759C24.7305 19.9445 24.908 19.8705 25.0931 19.8705H38.5925C38.7777 19.8705 38.9552 19.9445 39.0856 20.0759L40.5339 21.5357C40.6643 21.6671 40.8418 21.7411 41.0269 21.7411H43.2112C43.5948 21.7411 43.9057 22.052 43.9057 22.4356V31.5674C43.9057 38.9156 39.1915 45.4835 32.3477 47.8133C32.0206 47.9246 31.6651 47.9246 31.338 47.8133C24.4941 45.4835 19.7799 38.9156 19.7799 31.5674V22.4356Z" fill="white"/>
<path fill-rule="evenodd" clip-rule="evenodd" d="M29.7131 23.0543C28.1407 23.4749 26.8566 24.7854 26.4409 26.3938C26.3495 26.7477 26.3109 27.3202 26.3109 28.3252V29.7537L26.077 29.8011C25.7462 29.8682 25.1636 30.2826 24.9061 30.6339C24.4687 31.2309 24.4162 31.6398 24.4615 34.0952C24.4973 36.0262 24.5279 36.4261 24.6853 37.018C24.9012 37.8295 25.3173 38.7445 25.7843 39.4344C26.1693 40.0032 27.0953 40.924 27.6994 41.339C29.7027 42.7148 32.5533 42.9458 34.7732 41.9122C36.7648 40.9848 38.2447 39.1963 38.823 37.018C38.9785 36.4322 39.0111 36.0197 39.0469 34.1868C39.0935 31.7976 39.0357 31.292 38.6496 30.7126C38.3857 30.3166 37.7954 29.8749 37.4317 29.8011L37.1978 29.7537L37.1965 28.3715C37.1956 27.4434 37.1531 26.8093 37.067 26.441C36.6839 24.803 35.3828 23.4699 33.7565 23.049C33.0699 22.8714 30.3839 22.8749 29.7131 23.0543ZM33.6607 24.8083C34.278 25.041 34.9177 25.6314 35.216 26.2434C35.4443 26.712 35.4554 26.7934 35.4825 28.2108L35.5107 29.6894H31.7544H27.998L28.0262 28.2108C28.0533 26.7934 28.0644 26.712 28.2927 26.2434C28.5854 25.6428 29.226 25.0441 29.8238 24.8125C30.202 24.6659 30.4775 24.6405 31.7299 24.6366C33.0053 24.6328 33.254 24.6549 33.6607 24.8083ZM37.1591 31.6141C37.3672 31.8238 37.3679 31.8304 37.3679 33.5793C37.3679 34.5444 37.3265 35.6334 37.2761 35.9994C37.0175 37.8729 35.8713 39.4552 34.1784 40.2755C33.2601 40.7204 32.7652 40.8327 31.7289 40.831C30.7335 40.8294 30.0308 40.6613 29.2006 40.226C28.0321 39.6133 27.0701 38.5622 26.5884 37.372C26.2415 36.5147 26.147 35.7331 26.1438 33.6927L26.1408 31.8244L26.3496 31.6141L26.5584 31.4037H31.7544H36.9503L37.1591 31.6141ZM31.185 34.1818L30.9463 34.3884L30.9192 35.7682L30.8921 37.1479L31.1466 37.4044C31.4789 37.7393 31.9707 37.7599 32.3237 37.454L32.5624 37.2471V35.818V34.3889L32.3237 34.1819C32.0002 33.9015 31.5087 33.9014 31.185 34.1818Z" fill="white"/>
</svg>
