<svg width="64" height="64" viewBox="0 0 64 64" fill="none" xmlns="http://www.w3.org/2000/svg">
<circle cx="31.5463" cy="31.5463" r="31.5463" fill="#141527"/>
<path d="M27.434 32.1257H16.4375C15.9583 32.1257 15.5693 31.7337 15.5693 31.2507C15.5693 30.7677 15.9583 30.3757 16.4375 30.3757H27.434C27.9132 30.3757 28.3021 30.7677 28.3021 31.2507C28.3021 31.7337 27.9132 32.1257 27.434 32.1257Z" fill="white"/>
<path d="M23.0933 36.5005C22.8709 36.5005 22.6488 36.4153 22.4797 36.2439C22.1406 35.9019 22.1406 35.3478 22.4797 35.006L26.207 31.2494L22.4797 27.4938C22.1406 27.1518 22.1406 26.5977 22.4797 26.2559C22.8188 25.9141 23.3686 25.9141 23.7079 26.2559L28.0486 30.6309C28.3878 30.9727 28.3878 31.5269 28.0486 31.8689L23.7079 36.2439C23.5377 36.4153 23.3154 36.5005 23.0933 36.5005V36.5005Z" fill="white"/>
<path d="M34.0897 47.0005C32.813 47.0005 31.7748 45.9539 31.7748 44.667V23.6664C31.7748 22.6689 32.4045 21.7787 33.342 21.4508L40.2964 19.1139C41.8521 18.6332 43.35 19.7965 43.35 21.3331V42.3337C43.35 43.3301 42.7203 44.219 41.7839 44.548L34.8271 46.8862C34.5736 46.9655 34.3388 47.0005 34.0897 47.0005V47.0005ZM41.0349 20.7497C40.9596 20.7497 40.896 20.7591 40.8278 20.78L33.9024 23.1075C33.6754 23.187 33.5111 23.4179 33.5111 23.6664V44.667C33.5111 45.065 33.9393 45.3333 34.297 45.2201L41.2224 42.8926C41.4482 42.8131 41.6137 42.5822 41.6137 42.3337V21.3331C41.6137 21.0122 41.3545 20.7497 41.0349 20.7497V20.7497Z" fill="white"/>
<path d="M25.6977 24.8335C25.2185 24.8335 24.8296 24.4415 24.8296 23.9585V22.2085C24.8296 20.4386 26.2566 19 28.0126 19H41.0348C41.514 19 41.9029 19.392 41.9029 19.875C41.9029 20.358 41.514 20.75 41.0348 20.75H28.0126C27.2151 20.75 26.5659 21.4046 26.5659 22.2085V23.9585C26.5659 24.4415 26.1769 24.8335 25.6977 24.8335V24.8335Z" fill="white"/>
<path d="M32.6428 43.4998H28.0126C26.2566 43.4998 24.8296 42.0612 24.8296 40.2913V38.5413C24.8296 38.0583 25.2185 37.6663 25.6977 37.6663C26.1769 37.6663 26.5659 38.0583 26.5659 38.5413V40.2913C26.5659 41.0952 27.2151 41.7497 28.0126 41.7497H32.6428C33.1221 41.7497 33.511 42.1417 33.511 42.6247C33.511 43.1078 33.1221 43.4998 32.6428 43.4998Z" fill="white"/>
</svg>
