<svg width="64" height="64" viewBox="0 0 64 64" fill="none" xmlns="http://www.w3.org/2000/svg">
<circle cx="31.5463" cy="31.5463" r="31.5463" fill="#141527"/>
<path d="M41.0954 22.6264C41.3083 22.1974 41.4286 21.7145 41.4286 21.2036C41.4286 19.4371 39.9967 18 38.2366 18C36.4765 18 35.0445 19.4371 35.0445 21.2036C35.0445 21.7145 35.1649 22.1974 35.3778 22.6264C30.3014 23.9101 26.5323 28.5302 26.5323 34.0178C26.5323 40.4947 31.7829 45.7642 38.2366 45.7642C44.6903 45.7642 49.9408 40.4947 49.9408 34.0178C49.9408 28.5302 46.1718 23.9101 41.0954 22.6264ZM37.1726 21.2036C37.1726 20.6147 37.6499 20.1357 38.2366 20.1357C38.8233 20.1357 39.3006 20.6147 39.3006 21.2036C39.3006 21.7924 38.8233 22.2714 38.2366 22.2714C37.6499 22.2714 37.1726 21.7924 37.1726 21.2036ZM39.3006 43.5688V42.5606C39.3006 41.9709 38.8242 41.4928 38.2366 41.4928C37.6489 41.4928 37.1726 41.9709 37.1726 42.5606V43.5688C32.7406 43.0748 29.212 39.5335 28.7198 35.0856H29.7244C30.312 35.0856 30.7884 34.6075 30.7884 34.0178C30.7884 33.428 30.312 32.9499 29.7244 32.9499H28.7198C29.212 28.502 32.7406 24.9608 37.1726 24.4668V25.475C37.1726 26.0647 37.6489 26.5428 38.2366 26.5428C38.8242 26.5428 39.3006 26.0647 39.3006 25.475V24.4668C43.7325 24.9608 47.2611 28.5021 47.7533 32.9499H46.7487C46.1611 32.9499 45.6847 33.428 45.6847 34.0178C45.6847 34.6075 46.1611 35.0856 46.7487 35.0856H47.7533C47.2611 39.5335 43.7325 43.0748 39.3006 43.5688Z" fill="white"/>
<path d="M23.3405 22.2717H21.0706C20.483 22.2717 20.0066 22.7498 20.0066 23.3396C20.0066 23.9293 20.483 24.4075 21.0706 24.4075H23.3405C23.9281 24.4075 24.4045 23.9293 24.4045 23.3396C24.4045 22.7498 23.9281 22.2717 23.3405 22.2717Z" fill="white"/>
<path d="M23.3404 28.6777H18.9424C18.3548 28.6777 17.8784 29.1558 17.8784 29.7455C17.8784 30.3352 18.3548 30.8132 18.9424 30.8132H23.3404C23.928 30.8132 24.4044 30.3352 24.4044 29.7455C24.4044 29.1558 23.928 28.6777 23.3404 28.6777Z" fill="white"/>
<path d="M23.3405 35.0854H16.8145C16.2269 35.0854 15.7505 35.5636 15.7505 36.1533C15.7505 36.7431 16.2269 37.2212 16.8145 37.2212H23.3405C23.9281 37.2212 24.4045 36.7431 24.4045 36.1533C24.4045 35.5636 23.9281 35.0854 23.3405 35.0854Z" fill="white"/>
<path d="M23.3404 41.4932H14.6863C14.0987 41.4932 13.6223 41.9713 13.6223 42.561C13.6223 43.1508 14.0987 43.6289 14.6863 43.6289H23.3404C23.928 43.6289 24.4044 43.1508 24.4044 42.561C24.4044 41.9713 23.928 41.4932 23.3404 41.4932Z" fill="white"/>
<path d="M42.4927 32.9491H39.3006V29.7456C39.3006 29.1558 38.8243 28.6777 38.2366 28.6777C37.649 28.6777 37.1726 29.1558 37.1726 29.7456V34.0169C37.1726 34.6066 37.649 35.0847 38.2366 35.0847H42.4927C43.0803 35.0847 43.5567 34.6066 43.5567 34.0169C43.5567 33.4272 43.0803 32.9491 42.4927 32.9491Z" fill="white"/>
</svg>
