<svg width="141" height="24" viewBox="0 0 141 24" fill="none" xmlns="http://www.w3.org/2000/svg">
<path d="M38.47 4.3V19H43.195V4.3H38.47ZM52.0199 13.12V19H56.3249V12.7C56.3249 11.552 56.0659 10.67 55.5479 10.054C55.0299 9.424 54.1129 9.109 52.7969 9.109C52.0409 9.109 51.4179 9.263 50.9279 9.571C50.4519 9.865 50.0809 10.257 49.8149 10.747V9.34H45.7199V19H49.8149V13.12C49.8149 12.798 49.8639 12.539 49.9619 12.343C50.0599 12.133 50.1999 11.979 50.3819 11.881C50.5639 11.783 50.7739 11.734 51.0119 11.734C51.4319 11.734 51.7049 11.86 51.8309 12.112C51.9569 12.35 52.0199 12.686 52.0199 13.12ZM57.4898 9.34V12.595H64.9448V9.34H57.4898ZM59.2748 5.98V19H63.1598V5.98H59.2748ZM71.7327 19.21C73.0767 19.21 74.2037 18.958 75.1137 18.454C76.0377 17.936 76.7587 17.159 77.2767 16.123L73.5387 15.535C73.3707 15.843 73.1187 16.081 72.7827 16.249C72.4467 16.403 72.0267 16.48 71.5227 16.48C71.1447 16.48 70.8227 16.389 70.5567 16.207C70.3047 16.025 70.1087 15.766 69.9687 15.43C69.8427 15.08 69.7867 14.66 69.8007 14.17C69.8007 13.582 69.8567 13.106 69.9687 12.742C70.0807 12.364 70.2557 12.091 70.4937 11.923C70.7317 11.741 71.0397 11.65 71.4177 11.65C71.6977 11.65 71.9357 11.713 72.1317 11.839C72.3417 11.965 72.5027 12.147 72.6147 12.385C72.7267 12.623 72.7827 12.91 72.7827 13.246C72.7827 13.344 72.7547 13.463 72.6987 13.603C72.6427 13.743 72.5727 13.876 72.4887 14.002L73.2867 13.036H67.9107V15.01H77.0877C77.1157 14.856 77.1297 14.695 77.1297 14.527C77.1297 14.345 77.1297 14.163 77.1297 13.981C77.1297 12.931 76.9127 12.049 76.4787 11.335C76.0587 10.607 75.4287 10.061 74.5887 9.697C73.7627 9.319 72.7407 9.13 71.5227 9.13C70.2907 9.13 69.2407 9.333 68.3727 9.739C67.5047 10.131 66.8397 10.705 66.3777 11.461C65.9157 12.203 65.6847 13.106 65.6847 14.17C65.6847 15.22 65.9227 16.123 66.3987 16.879C66.8887 17.621 67.5817 18.195 68.4777 18.601C69.3877 19.007 70.4727 19.21 71.7327 19.21ZM78.9016 2.62V19H82.9966V2.62H78.9016ZM85.0949 2.62V19H89.1899V2.62H85.0949ZM90.9733 5.938C90.9733 6.554 91.1903 7.051 91.6243 7.429C92.0723 7.807 92.6113 7.996 93.2413 7.996C93.8713 7.996 94.4033 7.807 94.8373 7.429C95.2853 7.051 95.5093 6.554 95.5093 5.938C95.5093 5.322 95.2853 4.825 94.8373 4.447C94.4033 4.069 93.8713 3.88 93.2413 3.88C92.6113 3.88 92.0723 4.069 91.6243 4.447C91.1903 4.825 90.9733 5.322 90.9733 5.938ZM91.2673 9.34V19H95.1943V9.34H91.2673ZM101.959 11.65C101.959 10.894 102.127 10.264 102.463 9.76C102.813 9.242 103.268 8.857 103.828 8.605C104.402 8.353 105.032 8.227 105.718 8.227C106.418 8.227 107.02 8.318 107.524 8.5C108.028 8.668 108.469 8.892 108.847 9.172C109.239 9.452 109.589 9.739 109.897 10.033V5.287C109.323 4.881 108.693 4.545 108.007 4.279C107.335 4.013 106.46 3.88 105.382 3.88C104.108 3.88 102.946 4.062 101.896 4.426C100.846 4.79 99.9501 5.315 99.2081 6.001C98.4661 6.687 97.8921 7.506 97.4861 8.458C97.0801 9.41 96.8771 10.474 96.8771 11.65C96.8771 12.826 97.0801 13.89 97.4861 14.842C97.8921 15.794 98.4661 16.613 99.2081 17.299C99.9501 17.985 100.846 18.51 101.896 18.874C102.946 19.238 104.108 19.42 105.382 19.42C106.46 19.42 107.335 19.28 108.007 19C108.693 18.734 109.323 18.405 109.897 18.013V13.267C109.589 13.561 109.239 13.848 108.847 14.128C108.469 14.394 108.028 14.618 107.524 14.8C107.02 14.982 106.418 15.073 105.718 15.073C105.032 15.073 104.402 14.947 103.828 14.695C103.268 14.443 102.813 14.065 102.463 13.561C102.127 13.043 101.959 12.406 101.959 11.65ZM115.692 15.955C115.692 15.787 115.727 15.654 115.797 15.556C115.867 15.444 115.979 15.36 116.133 15.304C116.301 15.248 116.518 15.22 116.784 15.22C117.204 15.22 117.61 15.283 118.002 15.409C118.408 15.535 118.73 15.703 118.968 15.913V14.254C118.758 14.03 118.464 13.848 118.086 13.708C117.722 13.554 117.302 13.435 116.826 13.351C116.364 13.267 115.881 13.225 115.377 13.225C114.145 13.225 113.2 13.491 112.542 14.023C111.898 14.541 111.576 15.262 111.576 16.186C111.576 16.844 111.737 17.404 112.059 17.866C112.381 18.314 112.808 18.65 113.34 18.874C113.872 19.098 114.453 19.21 115.083 19.21C115.755 19.21 116.357 19.098 116.889 18.874C117.421 18.636 117.841 18.3 118.149 17.866C118.457 17.418 118.611 16.886 118.611 16.27L118.275 15.01C118.275 15.43 118.191 15.773 118.023 16.039C117.869 16.291 117.666 16.48 117.414 16.606C117.176 16.718 116.924 16.774 116.658 16.774C116.49 16.774 116.329 16.746 116.175 16.69C116.035 16.62 115.916 16.529 115.818 16.417C115.734 16.291 115.692 16.137 115.692 15.955ZM113.571 12.742C113.697 12.672 113.928 12.581 114.264 12.469C114.6 12.343 114.985 12.238 115.419 12.154C115.853 12.056 116.266 12.007 116.658 12.007C116.952 12.007 117.204 12.042 117.414 12.112C117.624 12.168 117.792 12.259 117.918 12.385C118.044 12.497 118.135 12.63 118.191 12.784C118.247 12.938 118.275 13.106 118.275 13.288V19H122.16V12.28C122.16 11.58 121.943 10.992 121.509 10.516C121.075 10.026 120.487 9.655 119.745 9.403C119.003 9.151 118.177 9.025 117.267 9.025C116.343 9.025 115.454 9.137 114.6 9.361C113.76 9.585 113.004 9.83 112.332 10.096L113.571 12.742ZM139.91 12.7C139.91 11.93 139.826 11.279 139.658 10.747C139.49 10.215 139.189 9.809 138.755 9.529C138.335 9.249 137.719 9.109 136.907 9.109C136.249 9.109 135.654 9.242 135.122 9.508C134.59 9.774 134.142 10.131 133.778 10.579C133.596 10.089 133.288 9.725 132.854 9.487C132.434 9.235 131.825 9.109 131.027 9.109C130.327 9.109 129.739 9.263 129.263 9.571C128.787 9.879 128.416 10.285 128.15 10.789V9.34H124.265V19H128.15V13.12C128.15 12.798 128.192 12.539 128.276 12.343C128.36 12.133 128.472 11.979 128.612 11.881C128.752 11.783 128.906 11.734 129.074 11.734C129.396 11.734 129.62 11.86 129.746 12.112C129.872 12.35 129.935 12.686 129.935 13.12V19H134.03V13.12C134.03 12.798 134.072 12.539 134.156 12.343C134.24 12.133 134.352 11.979 134.492 11.881C134.632 11.783 134.786 11.734 134.954 11.734C135.276 11.734 135.5 11.86 135.626 12.112C135.752 12.35 135.815 12.686 135.815 13.12V19H139.91V12.7Z" fill="#141527"/>
<path d="M16 9.49722C16 9.94537 16.1435 10.3069 16.4306 10.5819C16.7269 10.8569 17.0833 10.9944 17.5 10.9944C17.9167 10.9944 18.2685 10.8569 18.5556 10.5819C18.8519 10.3069 19 9.94537 19 9.49722C19 9.04907 18.8519 8.6875 18.5556 8.4125C18.2685 8.1375 17.9167 8 17.5 8C17.0833 8 16.7269 8.1375 16.4306 8.4125C16.1435 8.6875 16 9.04907 16 9.49722ZM16.1944 11.9722V19H18.7917V11.9722H16.1944Z" fill="#141527"/>
<path d="M34 4.46865C33.8308 4.85584 33.6227 5.22567 33.3788 5.57272C33.1792 5.79474 32.9301 5.96895 32.6508 6.0819C32.3714 6.19485 32.0692 6.24349 31.7675 6.22411H31.1501C31.1501 6.3566 31.1312 6.47804 31.1275 6.59213C31.1275 7.76981 31.1463 8.94381 31.1275 10.1178C31.0119 13.6186 29.4896 16.9338 26.8904 19.3447C24.2913 21.7556 20.8248 23.068 17.2425 22.9973C13.6601 22.9266 10.2507 21.4785 7.7532 18.967C5.2557 16.4555 3.87147 13.083 3.90057 9.5805C3.90057 8.58316 3.90057 7.58581 3.90057 6.58847V6.22045H3.16643C2.6052 6.22734 2.06402 6.01673 1.66118 5.63467C1.25835 5.25261 1.02664 4.73017 1.01673 4.18158C0.979085 2.77942 1.01673 3.15112 1.01673 1.74527C1.01164 1.64572 1.02829 1.54624 1.06554 1.45344C1.10278 1.36065 1.15979 1.27666 1.23278 1.20705C1.30576 1.13744 1.39305 1.08381 1.48887 1.0497C1.58469 1.0156 1.68684 1.0018 1.78853 1.00923H2.01441C12.345 1.00923 22.6743 1.00923 33.0023 1.00923C33.2034 0.981463 33.4083 1.01673 33.5875 1.10997C33.7668 1.20321 33.9112 1.34963 34 1.52815V4.46865ZM5.31987 6.25724C5.31987 7.31715 5.31987 8.3476 5.31987 9.37439C5.28236 11.0253 5.58716 12.6665 6.21589 14.1992C7.14656 16.4649 8.77212 18.3933 10.8692 19.7195C13.3329 21.2913 16.2961 21.9363 19.2093 21.535C22.1225 21.1337 24.7879 19.7133 26.7114 17.5372C28.3829 15.7067 29.4003 13.3946 29.6103 10.9495C29.7383 9.43696 29.6743 7.90966 29.6931 6.38972C29.6887 6.34483 29.6799 6.30046 29.6667 6.25724H5.31987ZM2.43983 2.41876V3.89085C2.43983 4.60114 2.69584 4.84771 3.43374 4.84771C4.98106 4.84771 6.52463 4.84771 8.07195 4.84771H31.583C32.3171 4.84771 32.5694 4.60113 32.5694 3.88349C32.5694 2.90822 32.5694 3.7142 32.5694 2.73894V2.42613L2.43983 2.41876Z" fill="#141527" stroke="#141527" stroke-width="0.5"/>
</svg>
