<svg width="71" height="71" viewBox="0 0 71 71" fill="none" xmlns="http://www.w3.org/2000/svg">
<circle cx="35.5" cy="35.5" r="35.5" fill="white"/>
<path d="M15 54.7187C15.5102 53.4588 16.0204 52.1938 16.5305 50.934C16.7193 50.4609 16.903 49.9878 17.0867 49.5147C17.1658 49.278 17.3202 49.0741 17.5258 48.9347C17.7315 48.7953 17.977 48.728 18.2243 48.7434H20.5151C20.5865 48.2291 20.663 47.7663 20.7293 47.2829C21.2191 43.6628 21.7089 40.041 22.1986 36.4174C22.4792 34.3605 22.7088 32.3035 23.0762 30.2981C23.3656 28.8724 24.1312 27.5899 25.2453 26.6644C26.3594 25.7389 27.7547 25.2263 29.1984 25.2123C33.3614 25.1815 37.5228 25.1815 41.6825 25.2123C43.1974 25.2444 44.6517 25.8179 45.7861 26.8303C46.9205 27.8428 47.6612 29.2285 47.8761 30.7403C48.5563 35.6289 49.2229 40.5226 49.876 45.4214C50.0086 46.4139 50.1464 47.4115 50.2841 48.404C50.3032 48.5206 50.3305 48.6358 50.3658 48.7485H52.5136C52.8022 48.7057 53.0963 48.7732 53.338 48.9379C53.5796 49.1025 53.7515 49.3523 53.8197 49.6381C54.4489 51.2254 55.073 52.816 55.6921 54.4102C56.09 55.4386 55.5951 56.1636 54.488 56.1636C41.7777 56.1636 29.0691 56.1636 16.3622 56.1636C16.0692 56.1895 15.7761 56.1154 15.53 55.9531C15.2838 55.7908 15.099 55.5498 15.0051 55.2689L15 54.7187ZM48.0138 48.7228C48.019 48.6372 48.019 48.5513 48.0138 48.4657L47.5037 44.8661C46.8982 40.4095 46.2928 35.9408 45.6874 31.4602C45.3507 28.9559 43.6875 27.4544 41.1825 27.4544H35.0246C33.1522 27.4544 31.2799 27.4544 29.4126 27.4544C28.4118 27.4412 27.4396 27.7906 26.6728 28.4389C25.9059 29.0872 25.3955 29.9915 25.2342 30.9871C24.9434 32.9463 24.6934 34.9107 24.4281 36.875C24.0166 39.9192 23.6016 42.9669 23.1833 46.018C23.066 46.9076 22.9486 47.792 22.8262 48.7022L48.0138 48.7228ZM53.0289 53.8651C52.7024 53.032 52.381 52.2709 52.1106 51.4945C52.0808 51.3428 51.9942 51.2085 51.8688 51.1195C51.7435 51.0305 51.5888 50.9935 51.4371 51.0162C43.9545 51.0162 36.482 51.0162 29.0198 51.0162C25.8413 51.0162 22.668 51.0162 19.4896 51.0162C19.0712 51.0162 18.8519 51.1088 18.7192 51.5305C18.5151 52.1784 18.209 52.8058 17.9845 53.4383C17.9335 53.5668 17.8927 53.7005 17.8417 53.8651H53.0289Z" fill="#141527"/>
<path d="M35.7441 15C36.0281 15.1326 36.2615 15.355 36.4089 15.6334C36.5562 15.9118 36.6094 16.231 36.5604 16.5426C36.5196 17.5453 36.5604 18.548 36.5604 19.5508C36.5754 19.7091 36.5573 19.8688 36.5075 20.0197C36.4576 20.1706 36.377 20.3093 36.2709 20.427C36.1647 20.5446 36.0353 20.6387 35.891 20.703C35.7467 20.7673 35.5907 20.8005 35.4329 20.8005C35.2751 20.8005 35.119 20.7673 34.9747 20.703C34.8304 20.6387 34.701 20.5446 34.5949 20.427C34.4887 20.3093 34.4082 20.1706 34.3583 20.0197C34.3084 19.8688 34.2904 19.7091 34.3054 19.5508C34.3054 18.5223 34.336 17.5453 34.3054 16.5426C34.2559 16.2303 34.3095 15.9103 34.4579 15.6317C34.6063 15.353 34.8412 15.1311 35.1268 15H35.7441Z" fill="#141527"/>
<path d="M25.3209 17.3241C25.484 17.3395 25.641 17.3943 25.7787 17.4838C25.9163 17.5733 26.0306 17.6949 26.1117 17.8383C26.7444 18.8667 27.3821 19.8952 27.9892 20.9596C28.1303 21.216 28.1676 21.5176 28.0933 21.8011C28.0189 22.0846 27.8388 22.3282 27.5904 22.4809C27.342 22.6337 27.0447 22.6837 26.7605 22.6206C26.4764 22.5575 26.2275 22.3861 26.0658 22.1423C25.423 21.1139 24.7904 20.0854 24.1883 19.021C23.7343 18.2342 24.2904 17.3138 25.3209 17.3241Z" fill="#141527"/>
<path d="M45.7128 17.324C45.9 17.3235 46.0842 17.3712 46.2479 17.4627C46.4115 17.5542 46.5493 17.6863 46.648 17.8466C46.7467 18.0069 46.803 18.19 46.8117 18.3785C46.8204 18.5669 46.781 18.7545 46.6974 18.9233C46.0801 20.0546 45.3965 21.155 44.6975 22.2452C44.5395 22.4738 44.2995 22.6317 44.0283 22.6854C43.757 22.7391 43.4756 22.6846 43.2435 22.5332C42.9958 22.3942 42.8119 22.1631 42.7309 21.8893C42.6499 21.6155 42.6782 21.3207 42.8098 21.0676C43.4425 19.9569 44.0955 18.8564 44.7995 17.7868C44.973 17.5246 45.3608 17.4063 45.6516 17.2263L45.7128 17.324Z" fill="#141527"/>
<path d="M33.744 31.6455H37.0959C37.2285 34.7668 36.7336 37.8161 36.5857 40.958H34.2899C34.1011 37.8676 33.6267 34.7977 33.744 31.6455Z" fill="#141527"/>
<path d="M35.4376 42.3154C35.7713 42.3175 36.0967 42.4194 36.3728 42.6082C36.6488 42.7971 36.863 43.0644 36.988 43.3761C37.1131 43.6879 37.1435 44.03 37.0753 44.3592C37.0071 44.6884 36.8434 44.9897 36.605 45.2249C36.3666 45.4602 36.0642 45.6187 35.7362 45.6804C35.4083 45.7421 35.0695 45.7042 34.763 45.5716C34.4564 45.4389 34.1959 45.2174 34.0144 44.9352C33.833 44.653 33.7388 44.3228 33.7438 43.9866C33.7452 43.7645 33.7902 43.5448 33.8762 43.3403C33.9622 43.1358 34.0876 42.9505 34.2451 42.7951C34.4026 42.6397 34.5891 42.5173 34.7938 42.435C34.9984 42.3526 35.2173 42.312 35.4376 42.3154Z" fill="#141527"/>
</svg>
