<svg width="71" height="71" viewBox="0 0 71 71" fill="none" xmlns="http://www.w3.org/2000/svg">
<circle cx="35.5" cy="35.5" r="35.5" fill="white"/>
<path d="M34.6829 54.0833L32.5095 53.4456C32.3844 53.4009 32.2646 53.3423 32.1524 53.2708C29.2137 51.5293 26.2734 49.7843 23.3314 48.036C22.2883 47.4597 21.4248 46.6024 20.8374 45.5599C20.2499 44.5174 19.9617 43.3308 20.005 42.1327C20.005 35.8386 20.005 29.5462 20.005 23.2555C19.9693 22.7175 20.1263 22.1845 20.4474 21.7533C20.7685 21.322 21.2324 21.0212 21.7549 20.9055C26.1084 19.6199 30.4603 18.3412 34.8104 17.0694C35.1547 16.9769 35.5171 16.9769 35.8614 17.0694C40.2183 18.3344 44.5702 19.613 48.9169 20.9055C49.4399 21.0202 49.9045 21.3208 50.2257 21.7523C50.547 22.1837 50.7036 22.7173 50.6669 23.2555C50.6669 29.5444 50.6669 35.8386 50.6669 42.1327C50.7061 43.3298 50.4137 44.5142 49.8226 45.5533C49.2315 46.5923 48.3649 47.4449 47.3201 48.0154C44.3814 49.7706 41.4411 51.5138 38.499 53.2451C37.8095 53.6379 37.0504 53.8912 36.2644 53.9907C36.1713 54.0092 36.0793 54.0333 35.9889 54.0627L34.6829 54.0833ZM48.4884 33.0463C48.4884 29.8581 48.4884 26.6699 48.4884 23.4817C48.4884 23.1835 48.417 23.0446 48.1108 22.9675C43.9529 21.7539 39.8 20.5249 35.642 19.3114C35.4269 19.2498 35.199 19.2498 34.9839 19.3114C30.8361 20.5198 26.6934 21.7437 22.5457 22.9521C22.4166 22.9737 22.3007 23.0444 22.2219 23.1497C22.143 23.2549 22.1074 23.3867 22.1222 23.5177C22.1222 29.6336 22.1222 35.7443 22.1222 41.8499C22.1222 42.0915 22.1222 42.3332 22.1222 42.5749C22.1469 43.2787 22.3468 43.965 22.7034 44.5706C23.0599 45.1762 23.5619 45.6818 24.163 46.0408C27.1526 47.844 30.1559 49.6215 33.1727 51.3733C33.8064 51.7557 34.531 51.9577 35.2696 51.9577C36.0081 51.9577 36.7328 51.7557 37.3664 51.3733C40.3969 49.6249 43.4087 47.8406 46.4017 46.0202C47.01 45.6783 47.5172 45.1796 47.8714 44.5751C48.2255 43.9706 48.4138 43.282 48.4169 42.58C48.5241 39.397 48.4884 36.2242 48.4884 33.0463Z" fill="#141527"/>
<path d="M35.3409 25.467C37.1685 25.4681 38.9548 26.0153 40.4737 27.0397C41.9927 28.064 43.1761 29.5194 43.8743 31.2218C44.5726 32.9241 44.7542 34.797 44.3963 36.6034C44.0384 38.4098 43.157 40.0686 41.8636 41.3701C40.5703 42.6716 38.923 43.5572 37.1302 43.915C35.3374 44.2727 33.4796 44.0865 31.7918 43.3799C30.104 42.6734 28.662 41.4781 27.6483 39.9454C26.6345 38.4128 26.0944 36.6114 26.0964 34.7694C26.1059 32.3025 27.0834 29.9396 28.8154 28.1967C30.5475 26.4538 32.8934 25.4725 35.3409 25.467ZM42.4069 34.7591C42.4029 33.3473 41.9832 31.9686 41.2012 30.7975C40.4191 29.6263 39.3099 28.7154 38.0138 28.1801C36.7178 27.6448 35.2933 27.5092 33.9208 27.7905C32.5483 28.0718 31.2894 28.7573 30.3037 29.7602C29.318 30.7631 28.6497 32.0384 28.3835 33.4244C28.1173 34.8103 28.2652 36.2448 28.8084 37.546C29.3516 38.8472 30.2657 39.9567 31.435 40.7339C32.6042 41.5111 33.976 41.9211 35.3766 41.912C37.2477 41.8957 39.0365 41.1347 40.3534 39.7949C41.6702 38.4551 42.4084 36.645 42.4069 34.7591Z" fill="#141527"/>
<path d="M34.1117 35.335C35.3055 34.219 36.4687 33.1391 37.6217 32.0541C37.741 31.9181 37.8892 31.811 38.0553 31.7406C38.2213 31.6703 38.401 31.6386 38.5808 31.6478C38.7805 31.6573 38.973 31.7258 39.1345 31.8446C39.2959 31.9635 39.4192 32.1275 39.4889 32.3163C39.5722 32.5057 39.5968 32.716 39.5594 32.9197C39.5221 33.1234 39.4247 33.311 39.2798 33.458C39.0349 33.7202 38.7696 33.9722 38.4992 34.2036L34.9688 37.505C34.862 37.6421 34.7251 37.7522 34.5688 37.8267C34.4125 37.9011 34.2411 37.9378 34.0683 37.9338C33.8954 37.9298 33.7259 37.8852 33.5731 37.8037C33.4204 37.7221 33.2886 37.6058 33.1882 37.4639C32.6015 36.8777 32.0148 36.2914 31.4383 35.6949C31.2919 35.5564 31.1869 35.3794 31.1351 35.1838C31.0833 34.9883 31.0868 34.782 31.1451 34.5884C31.2035 34.3947 31.3145 34.2214 31.4654 34.088C31.6164 33.9546 31.8014 33.8664 31.9995 33.8333C32.1776 33.8014 32.3609 33.8163 32.5316 33.8767C32.7023 33.937 32.8547 34.0408 32.9739 34.1779L34.1117 35.335Z" fill="#141527"/>
</svg>
