<svg width="71" height="71" viewBox="0 0 71 71" fill="none" xmlns="http://www.w3.org/2000/svg">
<circle cx="35.5" cy="35.5" r="35.5" fill="white"/>
<path d="M16 37.8863L16.9484 35.6219C17.0137 35.4195 17.1181 35.2323 17.2555 35.0708C17.393 34.9093 17.5607 34.7767 17.7491 34.6808C17.9375 34.5848 18.1429 34.5274 18.3534 34.5117C18.5639 34.4961 18.7754 34.5225 18.9758 34.5895C19.3678 34.6914 19.8188 34.9421 20.1476 34.8486C20.4763 34.7552 20.7208 34.3091 20.9906 34.0244C21.154 33.8375 21.3363 33.6681 21.5343 33.5189C21.6142 33.4807 21.6854 33.4265 21.7436 33.3594C21.8018 33.2924 21.8457 33.214 21.8725 33.1291C21.8994 33.0443 21.9087 32.9548 21.8998 32.8662C21.8909 32.7775 21.8641 32.6917 21.8209 32.614C21.7239 32.3379 21.652 32.0535 21.606 31.7643C21.5082 31.3998 21.5439 31.0121 21.7064 30.672C21.8689 30.3319 22.1475 30.0621 22.4911 29.912C23.2119 29.5891 23.9453 29.2832 24.6829 28.9985C25.0313 28.8589 25.4178 28.8494 25.7725 28.9717C26.1273 29.094 26.427 29.3401 26.6176 29.6655C26.8621 30.0564 27.0054 30.6044 27.3552 30.7999C27.7051 30.9953 28.253 30.7574 28.6914 30.8424C29.5681 31.008 30.0402 30.6724 30.4237 29.8822C30.9043 28.8796 31.6882 28.6714 32.7251 29.1047C33.3279 29.3554 33.9348 29.5976 34.5376 29.861C34.927 29.9991 35.2474 30.2854 35.4301 30.6586C35.6128 31.0317 35.6435 31.4621 35.5155 31.8577C35.4312 32.2104 35.3258 32.5545 35.2626 32.9113C35.2556 32.9778 35.2625 33.0451 35.2828 33.1087C35.3032 33.1724 35.3365 33.231 35.3806 33.281C35.84 33.7653 36.3079 34.2411 36.7926 34.7C36.8506 34.7483 36.9184 34.7833 36.9912 34.8024C37.064 34.8215 37.1401 34.8242 37.2141 34.8104C37.5893 34.7424 37.956 34.6235 38.3269 34.5385C38.6835 34.4445 39.0616 34.4808 39.3941 34.641C39.7267 34.8012 39.9922 35.075 40.1435 35.4137C40.4779 36.1501 40.787 36.8964 41.0708 37.6526C41.206 37.9983 41.2149 38.3811 41.096 38.7329C40.9771 39.0846 40.7382 39.3823 40.4217 39.5729C40.1014 39.7811 39.7726 39.9977 39.4312 40.1634C39.3506 40.1965 39.2843 40.2574 39.2441 40.3353C39.204 40.4131 39.1926 40.5028 39.212 40.5883C39.212 41.2468 39.212 41.9053 39.212 42.5638C39.2178 42.636 39.2379 42.7064 39.2712 42.7706C39.3045 42.8349 39.3503 42.8917 39.4059 42.9377C39.7178 43.1586 40.0635 43.3328 40.388 43.5367C40.7169 43.7304 40.9646 44.0381 41.0849 44.4025C41.2051 44.7668 41.1896 45.1628 41.0413 45.5165C40.7674 46.226 40.4765 46.9227 40.1983 47.6407C40.055 48.0107 39.7798 48.3133 39.4266 48.4894C39.0733 48.6654 38.6676 48.7021 38.2889 48.5923C37.9307 48.5074 37.5766 48.3927 37.2099 48.3247C37.1438 48.3152 37.0764 48.3193 37.0119 48.3369C36.9475 48.3544 36.8872 48.3849 36.8348 48.4267C36.343 48.8997 35.8625 49.384 35.3932 49.8796C35.3515 49.9314 35.321 49.9914 35.3036 50.0558C35.2861 50.1202 35.2822 50.1875 35.2921 50.2535C35.3553 50.6061 35.4607 50.9502 35.545 51.3028C35.6663 51.6941 35.6337 52.1173 35.4541 52.485C35.2744 52.8527 34.9614 53.1368 34.5797 53.2784C33.8126 53.614 33.037 53.9326 32.2657 54.2555H31.5955C31.3148 54.1632 31.0568 54.0116 30.8388 53.8109C30.6207 53.6102 30.4476 53.3649 30.331 53.0914C30.2299 52.8833 30.0823 52.6921 29.977 52.4797C29.8716 52.2672 29.762 52.263 29.5555 52.2757C28.9946 52.328 28.4303 52.328 27.8695 52.2757C27.7003 52.2327 27.5212 52.2562 27.3685 52.3414C27.2159 52.4266 27.1011 52.5672 27.0475 52.7346C26.7145 53.3931 26.352 54.0346 25.5638 54.2428H24.8937L22.5881 53.2656C22.2138 53.1242 21.9062 52.8458 21.7266 52.486C21.5469 52.1261 21.5084 51.7113 21.6186 51.3241C21.6795 51.037 21.7555 50.7534 21.8462 50.4744C21.881 50.4064 21.9021 50.3322 21.9082 50.2559C21.9143 50.1797 21.9053 50.103 21.8818 50.0303C21.8583 49.9576 21.8207 49.8903 21.7712 49.8323C21.7216 49.7744 21.6612 49.7269 21.5933 49.6927C21.3771 49.5295 21.1767 49.346 20.9948 49.1446C20.7082 48.86 20.4721 48.4139 20.1518 48.3204C19.8314 48.227 19.3762 48.4819 18.98 48.5753C18.7799 48.6424 18.5687 48.6691 18.3584 48.6537C18.148 48.6383 17.9428 48.5812 17.7545 48.4857C17.5661 48.3902 17.3983 48.2581 17.2607 48.097C17.1231 47.936 17.0184 47.7492 16.9526 47.5472L16.0042 45.2956V44.62C16.0926 44.3361 16.2413 44.075 16.4401 43.8548C16.6388 43.6347 16.8827 43.4609 17.1549 43.3455C17.3657 43.2436 17.5553 43.0991 17.7619 42.9886C17.8428 42.9562 17.9093 42.8953 17.9488 42.8171C17.9884 42.7389 17.9984 42.6488 17.9768 42.5638C17.927 41.9984 17.927 41.4298 17.9768 40.8644C18.0135 40.6997 17.9881 40.5272 17.9055 40.3803C17.8229 40.2335 17.6891 40.1228 17.53 40.07C16.8809 39.7343 16.2318 39.3817 16.0169 38.5873L16 37.8863ZM31.9538 30.6639C31.7093 31.0888 31.4901 31.4754 31.2541 31.8535C31.0946 32.1226 30.8614 32.3395 30.5824 32.4782C30.3035 32.6169 29.9908 32.6714 29.6819 32.6352C28.98 32.5948 28.2763 32.5948 27.5744 32.6352C27.238 32.6834 26.8951 32.6281 26.5905 32.4765C26.2859 32.3248 26.0338 32.084 25.8673 31.7855C25.6566 31.4244 25.4458 31.0675 25.2224 30.6936L23.292 31.4499C23.4058 31.8747 23.5196 32.2996 23.6165 32.7244C23.7017 33.0264 23.6998 33.3467 23.6109 33.6476C23.5221 33.9486 23.3501 34.2178 23.1149 34.4238C22.5585 34.9506 22.0148 35.4944 21.4921 36.0552C21.2892 36.2942 21.0224 36.4694 20.7235 36.5598C20.4245 36.6502 20.1061 36.652 19.8061 36.565C19.3846 36.4673 18.9631 36.3526 18.5416 36.2379C18.2887 36.8454 18.0359 37.4359 17.8082 38.0392C17.7829 38.1029 17.8799 38.2559 17.96 38.3111C18.2803 38.5193 18.6175 38.6977 18.9421 38.9059C19.2052 39.0718 19.4161 39.3096 19.5504 39.5917C19.6847 39.8737 19.7369 40.1883 19.7008 40.4991C19.6713 41.2043 19.6671 41.9138 19.7008 42.6233C19.7402 42.9461 19.6855 43.2736 19.5433 43.5656C19.401 43.8576 19.1775 44.1014 18.8999 44.2674C18.5838 44.4628 18.255 44.6413 17.9473 44.8452C17.8715 44.892 17.7829 45.0321 17.804 45.0874C18.0358 45.6991 18.293 46.2982 18.5416 46.9057C18.9631 46.7995 19.3298 46.7145 19.6966 46.6083C20.0326 46.4919 20.3966 46.4856 20.7365 46.5901C21.0763 46.6946 21.3747 46.9047 21.5891 47.1903C22.0397 47.7012 22.5211 48.1836 23.0306 48.6348C23.3057 48.8497 23.5081 49.1452 23.61 49.4806C23.7119 49.8161 23.7083 50.1751 23.5997 50.5084C23.4943 50.8992 23.4016 51.2943 23.3046 51.6979L25.2351 52.4966C25.4711 52.093 25.6861 51.7192 25.9095 51.3496C26.0745 51.0624 26.3204 50.8311 26.6161 50.6851C26.9118 50.5391 27.2439 50.485 27.5702 50.5296C28.2482 50.5699 28.928 50.5699 29.606 50.5296C29.9391 50.4859 30.2775 50.5434 30.5779 50.6948C30.8782 50.8462 31.1269 51.0845 31.292 51.3793C31.4775 51.6894 31.6461 52.0038 31.8442 52.3055C31.8906 52.382 32.0297 52.4712 32.0887 52.4499C32.6914 52.212 33.2899 51.9571 33.8927 51.7064C33.7831 51.2816 33.6904 50.8907 33.5892 50.5084C33.4829 50.1744 33.4818 49.8154 33.5859 49.4807C33.69 49.146 33.8944 48.8521 34.1709 48.6391C34.681 48.19 35.1612 47.7075 35.6082 47.1946C35.8206 46.915 36.114 46.7087 36.4477 46.6045C36.7815 46.5002 37.1391 46.503 37.4712 46.6126C37.859 46.7188 38.251 46.8123 38.6556 46.91L39.4523 44.9727C39.0308 44.7348 38.6641 44.5096 38.2889 44.2759C38.0153 44.116 37.7943 43.8785 37.6534 43.5929C37.5125 43.3074 37.458 42.9865 37.4965 42.67C37.5429 41.9868 37.5429 41.3012 37.4965 40.618C37.4354 40.2531 37.4941 39.8781 37.6638 39.5499C37.8334 39.2217 38.1047 38.9583 38.4365 38.7997C38.7779 38.6085 39.1066 38.4003 39.4481 38.2007C39.1657 37.5252 38.9085 36.8964 38.643 36.2591C38.192 36.3738 37.7789 36.4843 37.3785 36.5863C37.0752 36.6656 36.7558 36.6566 36.4574 36.5604C36.1589 36.4641 35.8937 36.2845 35.6925 36.0424C35.1993 35.5029 34.6851 34.9803 34.1498 34.4875C33.8984 34.2828 33.7121 34.0083 33.614 33.6979C33.5159 33.3875 33.5102 33.055 33.5976 32.7414L33.918 31.4669L31.9538 30.6639Z" fill="#141527"/>
<path d="M54.0024 26.8312C53.9034 27.169 53.6945 27.4634 53.4093 27.6668C53.124 27.8703 52.7792 27.9711 52.4302 27.9528C52.0972 27.9528 51.9539 28.1185 51.7979 28.4286C51.4481 29.1339 51.3343 29.7032 51.9497 30.3702C52.3459 30.795 52.211 31.5003 51.7979 31.9463C51.3849 32.3924 50.976 32.796 50.5334 33.2209C50.3067 33.4501 50.002 33.5838 49.681 33.5949C49.3601 33.6059 49.047 33.4935 48.8053 33.2804C48.6177 33.0885 48.3717 32.9654 48.1067 32.9308C47.8416 32.8961 47.5727 32.9519 47.3427 33.0892C47.1021 33.1557 46.8895 33.2996 46.7374 33.499C46.5853 33.6983 46.5018 33.9423 46.4997 34.1938C46.4918 34.3693 46.4488 34.5415 46.3733 34.6999C46.2978 34.8583 46.1912 34.9996 46.0601 35.1155C45.929 35.2314 45.7761 35.3193 45.6104 35.3741C45.4447 35.4289 45.2698 35.4494 45.0961 35.4343H43.5703C43.4028 35.4494 43.234 35.4307 43.0737 35.3792C42.9135 35.3278 42.7651 35.2446 42.6371 35.1346C42.5092 35.0247 42.4043 34.8901 42.3286 34.7387C42.2528 34.5874 42.2078 34.4223 42.1962 34.2532C42.1953 33.9774 42.1026 33.7098 41.933 33.4934C41.7633 33.2769 41.5265 33.1241 41.2604 33.0594C41.0548 32.9385 40.8154 32.8892 40.5793 32.9192C40.3431 32.9491 40.1233 33.0566 39.9538 33.2251C39.8225 33.3504 39.6671 33.4472 39.4972 33.5096C39.3273 33.572 39.1465 33.5986 38.966 33.5879C38.7855 33.5771 38.6091 33.5292 38.4477 33.4471C38.2863 33.365 38.1433 33.2504 38.0275 33.1104C37.665 32.7535 37.3025 32.3967 36.9527 32.0271C36.8248 31.9159 36.7204 31.7801 36.6455 31.6275C36.5705 31.475 36.5267 31.3089 36.5165 31.1391C36.5062 30.9692 36.5299 30.799 36.586 30.6385C36.6421 30.478 36.7295 30.3304 36.8431 30.2045C36.9919 30.0064 37.0878 29.7733 37.1216 29.5272C37.1555 29.2812 37.1262 29.0305 37.0366 28.7991C36.947 28.5677 36.8 28.3633 36.6097 28.2055C36.4194 28.0477 36.1921 27.9417 35.9495 27.8976C35.1065 27.8254 34.685 27.2816 34.685 26.4319C34.685 25.9221 34.685 25.4123 34.685 24.9024C34.6731 24.568 34.7895 24.2419 35.0102 23.9918C35.2308 23.7417 35.5386 23.587 35.8695 23.5599C36.1218 23.5315 36.3621 23.4356 36.5653 23.2821C36.7686 23.1286 36.9274 22.9232 37.0254 22.6871C37.1234 22.4509 37.157 22.1927 37.1228 21.939C37.0885 21.6854 36.9876 21.4456 36.8305 21.2445C36.6074 20.9866 36.4946 20.6502 36.5167 20.3087C36.5388 19.9673 36.6941 19.6485 36.9485 19.422C37.311 19.0438 37.6777 18.6742 38.0528 18.3131C38.1625 18.1788 38.2982 18.0686 38.4517 17.9892C38.6052 17.9097 38.7731 17.8628 38.9453 17.8513C39.1174 17.8397 39.2901 17.8638 39.4527 17.9221C39.6152 17.9803 39.7642 18.0714 39.8906 18.1899C40.3669 18.6147 40.7336 18.6148 41.3194 18.3641C41.5584 18.3002 41.77 18.1594 41.9222 17.963C42.0744 17.7667 42.1588 17.5256 42.1624 17.2765C42.2383 16.4268 42.7863 16.002 43.6251 16.002H45.1087C45.4472 15.9832 45.7795 16.0991 46.0341 16.3248C46.2887 16.5504 46.4453 16.8677 46.4702 17.2085C46.466 17.475 46.5524 17.7348 46.7149 17.945C46.8775 18.1552 47.1064 18.3031 47.3638 18.3641C47.9244 18.5765 48.2953 18.602 48.7631 18.1941C48.892 18.0749 49.0434 17.9833 49.2084 17.9247C49.3733 17.8661 49.5484 17.8418 49.7229 17.8533C49.8974 17.8649 50.0678 17.9119 50.2238 17.9917C50.3798 18.0714 50.5181 18.1822 50.6304 18.3174C50.9929 18.6742 51.3511 19.0353 51.7052 19.4007C51.8375 19.5115 51.9459 19.6483 52.024 19.8028C52.102 19.9572 52.1479 20.1261 52.159 20.2991C52.17 20.4721 52.146 20.6456 52.0882 20.8088C52.0305 20.9721 51.9403 21.1218 51.8232 21.2488C51.6304 21.4299 51.508 21.6744 51.4778 21.9384C51.4477 22.2023 51.5119 22.4684 51.6588 22.689C51.8865 23.1393 52.0087 23.5387 52.6283 23.5387C52.94 23.5406 53.2424 23.6462 53.4886 23.839C53.7347 24.0318 53.9109 24.3011 53.9897 24.6051L54.0024 26.8312ZM39.0939 31.8741C39.292 31.7254 39.4733 31.598 39.6461 31.4493C39.8686 31.2477 40.1502 31.1246 40.4483 31.0985C40.7463 31.0725 41.0447 31.1449 41.2984 31.3048C41.5406 31.4558 41.8013 31.5744 42.0739 31.6574C43.1066 31.8911 43.722 32.4519 43.7262 33.5777C43.7393 33.6298 43.7657 33.6775 43.8026 33.7163C43.8396 33.755 43.8859 33.7834 43.937 33.7987C44.2657 33.8242 44.5987 33.7987 44.9401 33.7987C44.9781 33.5353 45.0076 33.3143 45.0371 33.0934C45.0606 32.8119 45.1665 32.5437 45.3413 32.3229C45.5161 32.1021 45.7521 31.9385 46.0192 31.8529C46.5165 31.6702 47.0055 31.462 47.486 31.2411C47.7168 31.1188 47.9774 31.0654 48.2372 31.0873C48.497 31.1091 48.7453 31.2052 48.9528 31.3643C49.172 31.5215 49.3743 31.6829 49.5893 31.8359L50.4323 30.9862L50.0108 30.4254C49.8244 30.1988 49.7118 29.9197 49.6884 29.6263C49.665 29.3328 49.732 29.0392 49.8801 28.7855C50.0922 28.339 50.2793 27.8808 50.4407 27.4133C50.5119 27.1601 50.6546 26.9334 50.8514 26.7606C51.0483 26.5879 51.2907 26.4766 51.5493 26.4404L52.3585 26.3087V25.1191L51.7305 25.0299C51.4471 25.0125 51.1754 24.9103 50.95 24.7362C50.7247 24.5621 50.5562 24.3241 50.466 24.0528C50.2763 23.5429 50.0698 23.0374 49.8464 22.5403C49.7305 22.3122 49.6805 22.0558 49.7021 21.8004C49.7237 21.545 49.816 21.3009 49.9686 21.0958C50.1204 20.8707 50.289 20.671 50.4365 20.4628L49.5935 19.6131C49.4291 19.7363 49.2563 19.8596 49.0961 19.9913C48.8622 20.1988 48.5679 20.3246 48.2572 20.3498C47.9466 20.3751 47.6361 20.2985 47.3722 20.1314C46.9791 19.9221 46.5669 19.7514 46.1414 19.6216C45.846 19.5462 45.5818 19.3787 45.3865 19.1429C45.1912 18.9072 45.0748 18.6153 45.0539 18.3089C45.0244 18.0922 44.9907 17.884 44.9612 17.6716H43.7684C43.7389 17.8925 43.7094 18.0964 43.6883 18.2834C43.6698 18.603 43.5488 18.908 43.3436 19.1524C43.1383 19.3968 42.8599 19.5674 42.5502 19.6386C42.1366 19.766 41.7358 19.9324 41.3532 20.1357C41.0946 20.2968 40.7919 20.3709 40.4888 20.3472C40.1858 20.3235 39.898 20.2033 39.6672 20.004C39.4859 19.8638 39.2962 19.7278 39.1656 19.6301L38.2762 20.4416C38.4532 20.6795 38.6218 20.8919 38.7778 21.1171C38.9241 21.3186 39.0125 21.5568 39.0333 21.8056C39.0541 22.0544 39.0066 22.3042 38.8958 22.5276C38.664 23.0501 38.449 23.5769 38.2425 24.108C38.168 24.3335 38.0342 24.5345 37.8553 24.6894C37.6764 24.8442 37.4591 24.9472 37.2267 24.9874C36.9401 25.0469 36.6492 25.0894 36.3415 25.1446V25.6162C36.3415 26.3044 36.3415 26.3172 37.0117 26.4149C37.2963 26.4383 37.5678 26.5453 37.7926 26.7228C38.0174 26.9003 38.1856 27.1404 38.2762 27.4133C38.4575 27.9146 38.664 28.4074 38.8832 28.8917C39.003 29.1245 39.0543 29.3869 39.0312 29.648C39.008 29.9092 38.9113 30.1583 38.7525 30.3659C38.5966 30.5869 38.4364 30.7908 38.2762 31.0202L39.0939 31.8741Z" fill="#141527"/>
<path d="M22.7946 41.5559C22.7963 40.3995 23.1382 39.2696 23.777 38.3091C24.4159 37.3486 25.323 36.6007 26.3837 36.1599C27.4444 35.7191 28.6109 35.6053 29.7358 35.8328C30.8606 36.0604 31.8932 36.6191 32.703 37.4383C33.5128 38.2575 34.0633 39.3003 34.285 40.4349C34.5067 41.5695 34.3895 42.7448 33.9484 43.8123C33.5072 44.8798 32.7618 45.7914 31.8066 46.4318C30.8513 47.0723 29.7291 47.4128 28.5818 47.4103C27.0443 47.4069 25.5711 46.7883 24.4859 45.6905C23.4007 44.5927 22.7924 43.1056 22.7946 41.5559ZM24.4806 41.4837C24.462 42.298 24.6827 43.0998 25.1151 43.788C25.5474 44.4762 26.1721 45.0202 26.9104 45.3514C27.6488 45.6827 28.4678 45.7865 29.2645 45.6497C30.0612 45.5129 30.8 45.1416 31.3878 44.5827C31.9757 44.0237 32.3865 43.302 32.5684 42.5083C32.7503 41.7146 32.6952 40.8844 32.4101 40.1222C32.125 39.36 31.6227 38.6997 30.9662 38.2246C30.3098 37.7495 29.5286 37.4806 28.7209 37.4519C28.1803 37.4355 27.6419 37.5269 27.1364 37.7209C26.631 37.9148 26.1686 38.2076 25.7758 38.5822C25.3829 38.9568 25.0674 39.406 24.8473 39.904C24.6272 40.4019 24.5069 40.9387 24.4932 41.4837H24.4806Z" fill="#141527"/>
<path d="M44.3628 29.1765C43.6846 29.179 43.0209 28.9788 42.4555 28.6013C41.89 28.2238 41.4483 27.6858 41.1861 27.0553C40.9239 26.4249 40.8529 25.7303 40.9821 25.0592C41.1114 24.3881 41.4351 23.7707 41.9123 23.285C42.3895 22.7992 42.9989 22.4669 43.6634 22.3301C44.3279 22.1932 45.0177 22.2579 45.6457 22.5161C46.2737 22.7742 46.8118 23.2141 47.1919 23.7802C47.572 24.3464 47.777 25.0134 47.7812 25.697C47.784 26.1519 47.6977 26.6028 47.5273 27.024C47.3569 27.4452 47.1058 27.8284 46.7882 28.1516C46.4707 28.4748 46.093 28.7317 45.6768 28.9075C45.2606 29.0834 44.8141 29.1748 44.3628 29.1765ZM44.3207 27.647C44.6991 27.652 45.0705 27.5438 45.3879 27.3361C45.7054 27.1284 45.9545 26.8304 46.104 26.4799C46.2534 26.1295 46.2963 25.7422 46.2274 25.3671C46.1585 24.9921 45.9808 24.646 45.7167 24.3727C45.4527 24.0994 45.1141 23.9112 44.744 23.8319C44.3738 23.7525 43.9886 23.7855 43.637 23.9268C43.2855 24.0681 42.9834 24.3113 42.769 24.6256C42.5545 24.94 42.4374 25.3113 42.4324 25.6928C42.4311 26.2027 42.6281 26.6928 42.9811 27.0581C43.334 27.4234 43.8149 27.6348 44.3207 27.647Z" fill="#141527"/>
</svg>
