<svg width="71" height="71" viewBox="0 0 71 71" fill="none" xmlns="http://www.w3.org/2000/svg">
<circle cx="35.5" cy="35.5" r="35.5" fill="white"/>
<path d="M57.7197 26.8466C57.4903 27.3876 57.2083 27.9044 56.8779 28.3893C56.6074 28.6995 56.2699 28.9429 55.8912 29.1007C55.5126 29.2586 55.1031 29.3265 54.6943 29.2994H53.8576C53.8576 29.4846 53.8321 29.6543 53.827 29.8137C53.827 31.4592 53.8525 33.0996 53.827 34.7399C53.6704 39.6314 51.6074 44.2636 48.0852 47.6323C44.563 51.001 39.8654 52.8347 35.0108 52.736C30.1563 52.6372 25.536 50.6139 22.1515 47.1046C18.7671 43.5954 16.8912 38.8831 16.9307 33.9892C16.9307 32.5957 16.9307 31.2021 16.9307 29.8086V29.2943H15.9358C15.1753 29.304 14.4419 29.0097 13.896 28.4758C13.3501 27.942 13.0361 27.212 13.0227 26.4455C12.9717 24.4863 13.0227 25.0057 13.0227 23.0413C13.0158 22.9022 13.0383 22.7632 13.0888 22.6336C13.1393 22.5039 13.2165 22.3866 13.3154 22.2893C13.4144 22.192 13.5326 22.1171 13.6625 22.0694C13.7923 22.0218 13.9308 22.0025 14.0686 22.0129H14.3747C28.374 22.0129 42.3717 22.0129 56.3677 22.0129C56.6401 21.9741 56.9178 22.0234 57.1607 22.1537C57.4036 22.2839 57.5993 22.4885 57.7197 22.738V26.8466ZM18.854 29.3457C18.854 30.8267 18.854 32.2665 18.854 33.7012C18.8032 36.0079 19.2163 38.3012 20.0683 40.4427C21.3295 43.6085 23.5323 46.303 26.3741 48.1561C29.7128 50.3522 33.7284 51.2534 37.6762 50.6927C41.6239 50.132 45.236 48.1473 47.8425 45.1067C50.1077 42.5491 51.4865 39.3185 51.7709 35.9021C51.9444 33.7886 51.8577 31.6546 51.8832 29.5309C51.8773 29.4681 51.8653 29.4061 51.8475 29.3457H18.854ZM14.9512 23.9824V26.0393C14.9512 27.0317 15.2981 27.3762 16.2981 27.3762C18.3949 27.3762 20.4867 27.3762 22.5835 27.3762H54.4443C55.4391 27.3762 55.781 27.0317 55.781 26.029C55.781 24.6663 55.781 25.7924 55.781 24.4298V23.9927L14.9512 23.9824Z" fill="#141527"/>
<path d="M35.3225 48.9126C33.5875 48.903 31.8945 48.3735 30.4589 47.3912C29.0234 46.409 27.9102 45.0186 27.2609 43.3968C26.6117 41.775 26.4559 39.9952 26.8132 38.2839C27.1705 36.5726 28.0248 35.0071 29.2674 33.7866C30.5101 32.5661 32.0849 31.7458 33.7914 31.43C35.498 31.1143 37.2591 31.3174 38.8508 32.0134C40.4425 32.7095 41.7928 33.8671 42.7299 35.339C43.6669 36.8108 44.1483 38.5303 44.1129 40.2788C44.0595 42.5909 43.1093 44.7898 41.4659 46.4039C39.8226 48.0179 37.6171 48.9186 35.3225 48.9126ZM35.3633 46.938C36.7072 46.939 38.0211 46.5384 39.1391 45.7868C40.2571 45.0353 41.1289 43.9665 41.6443 42.7156C42.1597 41.4647 42.2956 40.0879 42.0348 38.7592C41.774 37.4305 41.1282 36.2095 40.179 35.2507C39.2299 34.2918 38.02 33.6382 36.7023 33.3723C35.3846 33.1064 34.0183 33.2403 32.7761 33.757C31.5339 34.2737 30.4716 35.15 29.7234 36.2752C28.9752 37.4003 28.5748 38.7238 28.5728 40.0782C28.5728 41.8931 29.2863 43.634 30.5572 44.9197C31.828 46.2054 33.5525 46.9312 35.3531 46.938H35.3633Z" fill="#141527"/>
<path d="M47.0569 33.2537C47.1835 33.2544 47.3088 33.2802 47.4255 33.3297C47.5423 33.3791 47.6482 33.4513 47.7372 33.542C47.8263 33.6327 47.8968 33.7402 47.9446 33.8584C47.9924 33.9765 48.0167 34.103 48.016 34.2306C48.0007 34.4788 47.8966 34.713 47.723 34.8898C47.5495 35.0665 47.3183 35.174 47.0722 35.1921C46.8168 35.1909 46.572 35.0891 46.39 34.9085C46.208 34.7279 46.1031 34.4829 46.0978 34.2255C46.0957 34.0978 46.1191 33.9709 46.1665 33.8524C46.2139 33.7339 46.2844 33.6262 46.3738 33.5356C46.4632 33.445 46.5697 33.3734 46.687 33.325C46.8044 33.2766 46.9301 33.2523 47.0569 33.2537Z" fill="#141527"/>
<path d="M35.3482 44.9839C34.3891 44.9778 33.4533 44.6853 32.659 44.1433C31.8648 43.6013 31.2477 42.8343 30.8858 41.939C30.5238 41.0437 30.4333 40.0603 30.6256 39.1132C30.8179 38.166 31.2844 37.2976 31.9662 36.6176C32.648 35.9376 33.5144 35.4765 34.4561 35.2926C35.3977 35.1088 36.3723 35.2103 37.2567 35.5845C38.1412 35.9587 38.8957 36.5887 39.425 37.3949C39.9543 38.2011 40.2347 39.1474 40.2307 40.1142C40.2199 41.4112 39.7004 42.6513 38.7857 43.5637C37.8709 44.4761 36.6352 44.9866 35.3482 44.9839ZM32.4657 40.145C32.4769 40.7225 32.6573 41.2837 32.9843 41.758C33.3113 42.2323 33.7702 42.5984 34.3033 42.8103C34.8364 43.0222 35.4198 43.0703 35.9799 42.9485C36.5401 42.8268 37.052 42.5407 37.4511 42.1262C37.8502 41.7118 38.1187 41.1876 38.2228 40.6196C38.3268 40.0517 38.2618 39.4654 38.0358 38.9346C37.8099 38.4038 37.4331 37.9523 36.9531 37.6369C36.473 37.3216 35.9111 37.1565 35.3381 37.1625C34.565 37.1747 33.8283 37.4956 33.2897 38.0548C32.7512 38.614 32.4548 39.3658 32.4657 40.145Z" fill="#141527"/>
</svg>
